# xmcd
#
# Track frame offsets: 
#        150
#        18050
#        32704
#        54993
#        74514
#        92371
#        112082
#        133733
#        148159
#        168905
#        185188
#        208088
#
# Disc length: 3038 seconds
#
# Revision: 0
# Processed by: cddbd v1.5.2PL0 Copyright (c) Steve Scherf et al.
# Submitted via: ExactAudioCopy v0.95b4
#
DISCID=ad0bdc0c
DTITLE=Kevin Gordon - O Come Look At The Burning
DYEAR=2005
DGENRE=Country
TTITLE0=Watching The Sun Go Down
TTITLE1=Find My Way
TTITLE2=Greenwood Girls
TTITLE3=Casino Road
TTITLE4=Joe Light
TTITLE5=24 Diamonds
TTITLE6=Something Heavy
TTITLE7=Make It Good
TTITLE8=Flowers
TTITLE9=Calhoun
TTITLE10=Crazy Mixed-Up World
TTITLE11=Heart's Not In It
EXTD=
EXTT0=
EXTT1=
EXTT2=
EXTT3=
EXTT4=
EXTT5=
EXTT6=
EXTT7=
EXTT8=
EXTT9=
EXTT10=
EXTT11=
PLAYORDER=
